<?xml version="1.0" encoding="UTF-8" standalone="no"?>
<!-- Created with Inkscape (http://www.inkscape.org/) -->

<svg
   xmlns:dc="http://purl.org/dc/elements/1.1/"
   xmlns:cc="http://creativecommons.org/ns#"
   xmlns:rdf="http://www.w3.org/1999/02/22-rdf-syntax-ns#"
   xmlns:svg="http://www.w3.org/2000/svg"
   xmlns="http://www.w3.org/2000/svg"
   xmlns:sodipodi="http://sodipodi.sourceforge.net/DTD/sodipodi-0.dtd"
   xmlns:inkscape="http://www.inkscape.org/namespaces/inkscape"
   width="744.09448819"
   height="1052.3622047"
   id="svg2"
   version="1.1"
   inkscape:version="0.48.4 r9939"
   inkscape:export-filename="/home/eugen/Development/ludum_dare_36/static/buttons.png"
   inkscape:export-xdpi="80.597015"
   inkscape:export-ydpi="80.597015"
   sodipodi:docname="New document 1">
  <defs
     id="defs4" />
  <sodipodi:namedview
     id="base"
     pagecolor="#ffffff"
     bordercolor="#666666"
     borderopacity="1.0"
     inkscape:pageopacity="0.0"
     inkscape:pageshadow="2"
     inkscape:zoom="1.5621891"
     inkscape:cx="403.01184"
     inkscape:cy="897.995"
     inkscape:document-units="px"
     inkscape:current-layer="layer1"
     showgrid="false"
     inkscape:window-width="1280"
     inkscape:window-height="731"
     inkscape:window-x="-3"
     inkscape:window-y="-3"
     inkscape:window-maximized="1" />
  <metadata
     id="metadata7">
    <rdf:RDF>
      <cc:Work
         rdf:about="">
        <dc:format>image/svg+xml</dc:format>
        <dc:type
           rdf:resource="http://purl.org/dc/dcmitype/StillImage" />
        <dc:title></dc:title>
      </cc:Work>
    </rdf:RDF>
  </metadata>
  <g
     inkscape:label="Layer 1"
     inkscape:groupmode="layer"
     id="layer1">
    <path
       style="fill:#00f7e4;fill-opacity:1;stroke:#000000;stroke-width:1;stroke-miterlimit:4;stroke-opacity:1;stroke-dasharray:3, 1;stroke-dashoffset:0"
       d="m 123.02562,112.5374 c -4.72718,0 -8.53125,3.80407 -8.53125,8.53125 l 0,60.0625 c 0,4.72718 3.80407,8.53125 8.53125,8.53125 l 182.9375,0 c 4.72718,0 8.53125,-3.80407 8.53125,-8.53125 l 0,-60.0625 c 0,-4.72718 -3.80407,-8.53125 -8.53125,-8.53125 l -182.9375,0 z"
       id="rect2985"
       inkscape:connector-curvature="0" />
    <path
       inkscape:connector-curvature="0"
       style="fill:#00f7e4;fill-opacity:1;stroke:#000000;stroke-width:1;stroke-miterlimit:4;stroke-opacity:1;stroke-dasharray:3, 1;stroke-dashoffset:0"
       d="m 324.02562,112.5374 c -4.72718,0 -8.53125,3.80407 -8.53125,8.53125 l 0,60.0625 c 0,4.72718 3.80407,8.53125 8.53125,8.53125 l 182.9375,0 c 4.72718,0 8.53125,-3.80407 8.53125,-8.53125 l 0,-60.0625 c 0,-4.72718 -3.80407,-8.53125 -8.53125,-8.53125 l -182.9375,0 z"
       id="rect2985-3" />
    <path
       inkscape:connector-curvature="0"
       style="fill:#00f7e4;fill-opacity:1;stroke:#000000;stroke-width:1;stroke-miterlimit:4;stroke-opacity:1;stroke-dasharray:3, 1;stroke-dashoffset:0"
       d="m 525.02552,112.5374 c -4.7272,0 -8.5312,3.80407 -8.5312,8.53125 l 0,60.0625 c 0,4.72718 3.804,8.53125 8.5312,8.53125 l 182.9375,0 c 4.7272,0 8.5313,-3.80407 8.5313,-8.53125 l 0,-60.0625 c 0,-4.72718 -3.8041,-8.53125 -8.5313,-8.53125 l -182.9375,0 z"
       id="rect2985-6" />
    <text
       xml:space="preserve"
       style="font-size:20px;font-style:normal;font-weight:normal;line-height:125%;letter-spacing:0px;word-spacing:0px;fill:#000000;fill-opacity:1;stroke:none;font-family:Sans"
       x="133.75706"
       y="156.61748"
       id="text3015"
       sodipodi:linespacing="125%"><tspan
         sodipodi:role="line"
         id="tspan3017"
         x="133.75706"
         y="156.61748">Player vs Player</tspan></text>
    <text
       xml:space="preserve"
       style="font-size:20px;font-style:normal;font-weight:normal;line-height:125%;letter-spacing:0px;word-spacing:0px;fill:#000000;fill-opacity:1;stroke:none;font-family:Sans"
       x="334.75708"
       y="156.61748"
       id="text3015-7"
       sodipodi:linespacing="125%"><tspan
         sodipodi:role="line"
         id="tspan3017-5"
         x="334.75708"
         y="156.61748">Player vs Player</tspan></text>
    <text
       xml:space="preserve"
       style="font-size:20px;font-style:normal;font-weight:normal;line-height:125%;letter-spacing:0px;word-spacing:0px;fill:#000000;fill-opacity:1;stroke:none;font-family:Sans"
       x="535.75702"
       y="156.61748"
       id="text3015-3"
       sodipodi:linespacing="125%"><tspan
         sodipodi:role="line"
         id="tspan3017-56"
         x="535.75702"
         y="156.61748">Player vs Player</tspan></text>
    <path
       style="fill:#00f7e4;fill-opacity:1;stroke:#000000;stroke-width:1;stroke-miterlimit:4;stroke-opacity:1;stroke-dasharray:3, 1;stroke-dashoffset:0"
       d="m 123.02562,190.6625 c -4.72718,0 -8.53125,3.80407 -8.53125,8.53125 l 0,60.0625 c 0,4.72718 3.80407,8.53125 8.53125,8.53125 l 182.9375,0 c 4.72718,0 8.53125,-3.80407 8.53125,-8.53125 l 0,-60.0625 c 0,-4.72718 -3.80407,-8.53125 -8.53125,-8.53125 l -182.9375,0 z"
       id="rect2985-2"
       inkscape:connector-curvature="0" />
    <path
       inkscape:connector-curvature="0"
       style="fill:#00f7e4;fill-opacity:1;stroke:#000000;stroke-width:1;stroke-miterlimit:4;stroke-opacity:1;stroke-dasharray:3, 1;stroke-dashoffset:0"
       d="m 324.02562,190.6625 c -4.72718,0 -8.53125,3.80407 -8.53125,8.53125 l 0,60.0625 c 0,4.72718 3.80407,8.53125 8.53125,8.53125 l 182.9375,0 c 4.72718,0 8.53125,-3.80407 8.53125,-8.53125 l 0,-60.0625 c 0,-4.72718 -3.80407,-8.53125 -8.53125,-8.53125 l -182.9375,0 z"
       id="rect2985-3-9" />
    <path
       inkscape:connector-curvature="0"
       style="fill:#00f7e4;fill-opacity:1;stroke:#000000;stroke-width:1;stroke-miterlimit:4;stroke-opacity:1;stroke-dasharray:3, 1;stroke-dashoffset:0"
       d="m 525.02552,190.6625 c -4.7272,0 -8.5312,3.80407 -8.5312,8.53125 l 0,60.0625 c 0,4.72718 3.804,8.53125 8.5312,8.53125 l 182.9375,0 c 4.7272,0 8.5313,-3.80407 8.5313,-8.53125 l 0,-60.0625 c 0,-4.72718 -3.8041,-8.53125 -8.5313,-8.53125 l -182.9375,0 z"
       id="rect2985-6-1" />
    <text
       xml:space="preserve"
       style="font-size:20px;font-style:normal;font-weight:normal;line-height:125%;letter-spacing:0px;word-spacing:0px;fill:#000000;fill-opacity:1;stroke:none;font-family:Sans"
       x="156.0764"
       y="234.74258"
       id="text3015-2"
       sodipodi:linespacing="125%"><tspan
         sodipodi:role="line"
         id="tspan3017-7"
         x="156.0764"
         y="234.74258">Player vs AI</tspan></text>
    <text
       xml:space="preserve"
       style="font-size:20px;font-style:normal;font-weight:normal;line-height:125%;letter-spacing:0px;word-spacing:0px;fill:#000000;fill-opacity:1;stroke:none;font-family:Sans"
       x="357.07642"
       y="234.74258"
       id="text3015-7-0"
       sodipodi:linespacing="125%"><tspan
         sodipodi:role="line"
         id="tspan3017-5-9"
         x="357.07642"
         y="234.74258">Player vs AI</tspan></text>
    <text
       xml:space="preserve"
       style="font-size:20px;font-style:normal;font-weight:normal;line-height:125%;letter-spacing:0px;word-spacing:0px;fill:#000000;fill-opacity:1;stroke:none;font-family:Sans"
       x="558.07635"
       y="234.74258"
       id="text3015-3-3"
       sodipodi:linespacing="125%"><tspan
         sodipodi:role="line"
         id="tspan3017-56-6"
         x="558.07635"
         y="234.74258">Player vs AI</tspan></text>
  </g>
</svg>
