<?xml version="1.0" encoding="UTF-8" standalone="no"?>
<!-- Created with Inkscape (http://www.inkscape.org/) -->

<svg
   xmlns:dc="http://purl.org/dc/elements/1.1/"
   xmlns:cc="http://creativecommons.org/ns#"
   xmlns:rdf="http://www.w3.org/1999/02/22-rdf-syntax-ns#"
   xmlns:svg="http://www.w3.org/2000/svg"
   xmlns="http://www.w3.org/2000/svg"
   xmlns:sodipodi="http://sodipodi.sourceforge.net/DTD/sodipodi-0.dtd"
   xmlns:inkscape="http://www.inkscape.org/namespaces/inkscape"
   width="988.49384"
   height="797.01178"
   id="svg2"
   version="1.1"
   inkscape:version="0.48.4 r9939"
   sodipodi:docname="pa_track1.svg"
   inkscape:export-filename="/home/me/proggen/web/ludum_dare_36_ancient_tech/static/pa_track1.png"
   inkscape:export-xdpi="123.83569"
   inkscape:export-ydpi="123.83569">
  <defs
     id="defs4" />
  <sodipodi:namedview
     id="base"
     pagecolor="#ffffff"
     bordercolor="#666666"
     borderopacity="1.0"
     inkscape:pageopacity="0.0"
     inkscape:pageshadow="2"
     inkscape:zoom="0.7"
     inkscape:cx="357.4915"
     inkscape:cy="406.92283"
     inkscape:document-units="px"
     inkscape:current-layer="layer1"
     showgrid="false"
     inkscape:window-width="1918"
     inkscape:window-height="1059"
     inkscape:window-x="0"
     inkscape:window-y="0"
     inkscape:window-maximized="0"
     fit-margin-top="0"
     fit-margin-left="0"
     fit-margin-right="0"
     fit-margin-bottom="0" />
  <metadata
     id="metadata7">
    <rdf:RDF>
      <cc:Work
         rdf:about="">
        <dc:format>image/svg+xml</dc:format>
        <dc:type
           rdf:resource="http://purl.org/dc/dcmitype/StillImage" />
        <dc:title></dc:title>
      </cc:Work>
    </rdf:RDF>
  </metadata>
  <g
     inkscape:label="Layer 1"
     inkscape:groupmode="layer"
     id="layer1"
     transform="translate(99.657798,-191.52086)">
    <rect
       style="fill:#72ad1f;fill-opacity:1;stroke:none"
       id="rect3053"
       width="936.93524"
       height="936.93524"
       x="-702.68909"
       y="244.76013"
       transform="matrix(0.76874193,-0.6395591,0.76874193,0.6395591,0,0)" />
    <path
       style="fill:#1c1716;stroke:#000000;stroke-width:0.88893253px;stroke-linecap:butt;stroke-linejoin:miter;stroke-opacity:1"
       d="M 760.6972,371.34106 C 692.63825,324.08171 612.68378,283.80956 565.29751,269.91081 476.09985,243.74849 414.26793,239.17618 332.51253,269.86635 250.75715,300.55653 136.08311,389.21883 136.56964,459.95359 c 0.48654,70.73475 160.99846,82.75982 145.18486,137.76843 -15.81361,55.00861 -47.31993,59.53295 -108.65653,67.3158 -61.33661,7.78285 -195.479923,-54.36892 -244.703348,-16.00281 -49.223432,38.3661 -27.277473,125.5415 23.844599,191.55887 C 3.3613776,906.61117 128.54505,980.6193 241.83324,987.44986 355.12145,994.28039 452.8349,945.54084 541.56912,877.27613 630.30334,809.01141 739.3633,715.21838 797.65237,660.17038 855.94143,605.12239 905.87775,583.03565 882.50848,499.38448 871.55413,460.17299 820.74919,413.04048 760.6972,371.34106 z m -120.70233,60.37155 c 6.00928,4.14149 11.64223,8.16726 16.79132,11.94684 41.19274,30.23657 89.58006,66.94611 66.41851,138.16537 -23.16155,71.21925 -90.45097,114.40168 -146.81753,157.43941 -56.36658,43.03771 -101.34297,78.34891 -175.93212,113.58409 -74.58916,35.23519 -139.24104,37.34359 -194.35607,21.79801 -55.11502,-15.54557 -148.433816,-69.8494 -136.36475,-97.55876 12.069065,-27.70935 49.65842,-5.77006 127.18733,-2.6987 77.52889,3.07135 100.69997,-16.28622 153.08048,-57.07733 52.38053,-40.79111 94.23022,-119.08493 82.4807,-174.7176 -11.74951,-55.63268 -138.26315,-72.15708 -122.1011,-117.39486 16.16205,-45.23777 110.57529,-59.83228 172.29392,-58.57481 54.00383,1.10028 115.25434,36.09782 157.31931,65.08834 z"
       id="path2985"
       inkscape:connector-curvature="0" />
  </g>
</svg>
