<?xml version="1.0" encoding="UTF-8" standalone="no"?>
<!-- Created with Inkscape (http://www.inkscape.org/) -->

<svg
   xmlns:dc="http://purl.org/dc/elements/1.1/"
   xmlns:cc="http://creativecommons.org/ns#"
   xmlns:rdf="http://www.w3.org/1999/02/22-rdf-syntax-ns#"
   xmlns:svg="http://www.w3.org/2000/svg"
   xmlns="http://www.w3.org/2000/svg"
   xmlns:sodipodi="http://sodipodi.sourceforge.net/DTD/sodipodi-0.dtd"
   xmlns:inkscape="http://www.inkscape.org/namespaces/inkscape"
   width="744.09448819"
   height="1052.3622047"
   id="svg2"
   version="1.1"
   inkscape:version="0.48.4 r9939"
   sodipodi:docname="pa_track1.svg">
  <defs
     id="defs4" />
  <sodipodi:namedview
     id="base"
     pagecolor="#ffffff"
     bordercolor="#666666"
     borderopacity="1.0"
     inkscape:pageopacity="0.0"
     inkscape:pageshadow="2"
     inkscape:zoom="0.7"
     inkscape:cx="497.28248"
     inkscape:cy="489.15593"
     inkscape:document-units="px"
     inkscape:current-layer="layer1"
     showgrid="false"
     inkscape:window-width="1918"
     inkscape:window-height="1059"
     inkscape:window-x="0"
     inkscape:window-y="0"
     inkscape:window-maximized="0" />
  <metadata
     id="metadata7">
    <rdf:RDF>
      <cc:Work
         rdf:about="">
        <dc:format>image/svg+xml</dc:format>
        <dc:type
           rdf:resource="http://purl.org/dc/dcmitype/StillImage" />
        <dc:title></dc:title>
      </cc:Work>
    </rdf:RDF>
  </metadata>
  <g
     inkscape:label="Layer 1"
     inkscape:groupmode="layer"
     id="layer1">
    <path
       style="fill:#1c1716;stroke:#000000;stroke-width:0.92226851px;stroke-linecap:butt;stroke-linejoin:miter;stroke-opacity:1"
       d="M 760.68484,324.17718 C 692.62819,273.30509 612.67642,229.95433 565.29175,214.9931 476.0971,186.8308 414.26727,181.90896 332.51463,214.94524 250.762,247.98153 136.09184,343.42161 136.57835,419.56369 c 0.48652,76.14207 160.99302,89.08639 145.17996,148.30013 -15.81308,59.21374 -47.31833,64.08395 -108.65286,72.46176 -61.33454,8.37781 -195.473328,-58.52515 -244.695092,-17.22615 -49.221768,41.299 -27.276552,135.13852 23.843794,206.20258 51.1204312,71.06398 176.299878,150.72966 289.584248,158.08239 113.28438,7.35269 210.99453,-45.11276 299.72576,-118.59596 88.73122,-73.48322 197.7875,-174.44625 256.0746,-233.70239 58.2871,-59.25614 108.22173,-83.0313 84.85325,-173.07718 -10.95398,-42.20901 -61.7572,-92.94456 -121.80717,-137.83169 z m -120.69825,64.98665 c 6.00907,4.45809 11.64183,8.79161 16.79075,12.86012 41.19135,32.548 89.57704,72.0638 66.41627,148.72741 C 700.03284,627.41497 632.74569,673.89848 576.38103,720.22622 520.01636,766.55395 475.04148,804.56451 400.45485,842.49325 325.86821,880.42199 261.21851,882.69156 206.10534,865.9576 150.99218,849.22365 57.676537,790.76857 69.745195,760.94097 c 12.068658,-29.82759 49.656745,-6.21116 127.183035,-2.90501 77.52628,3.30614 100.69657,-17.53121 153.07532,-61.4406 52.37876,-43.90939 94.22703,-128.18837 82.47791,-188.07388 -11.74911,-59.88552 -138.25848,-77.67313 -122.09698,-126.36911 16.16151,-48.69597 110.57156,-64.40615 172.28811,-63.05256 54.002,1.18439 115.25045,38.85732 157.314,70.06402 z"
       id="path2985"
       inkscape:connector-curvature="0" />
  </g>
</svg>
